# xmcd
#
# Track frame offsets: 
#        150
#        13941
#        30296
#        44362
#        57165
#        72467
#        86159
#        99641
#        108967
#        124690
#        144282
#        158419
#        181987
#        206295
#        228853
#        244526
#        252550
#        268233
#        294368
#
# Disc length: 4440 seconds
#
# Revision: 3
# Processed by: cddbd v1.5.2PL0 Copyright (c) Steve Scherf et al.
# Submitted via: ExactAudioCopy v1.0b3
#
DISCID=01115613
DTITLE=Nina Hagen - Was Denn… Hits '74-'95
DYEAR=2004
DGENRE=Rock
TTITLE0=Du Hast Den Farbfilm Vergessen
TTITLE1=Wenn Ich An Dich Denk
TTITLE2=Hatschi-Waldera
TTITLE3=Was Denn...
TTITLE4=He, Wir Fahren Auf's Land
TTITLE5=Komm Komm
TTITLE6=Wir Tanzen Tango
TTITLE7=Mama
TTITLE8=Das Kommt Weil Ich So Schoen Bin
TTITLE9=Honigmann
TTITLE10=Ich Bin Da Gar Nicht Pingelig
TTITLE11=TV-Glotzer (White Punks On Dope)
TTITLE12=Auf'm Bahnhof Zoo
TTITLE13=Zarah
TTITLE14=Sonntagmorgen
TTITLE15=Gloria Halleluja Amen
TTITLE16=Tiere (Radio Mix)
TTITLE17=Born To Die In Berlin
TTITLE18=Data Track
EXTD=YEAR: 2004
EXTT0=
EXTT1=
EXTT2=
EXTT3=
EXTT4=
EXTT5=
EXTT6=
EXTT7=
EXTT8=
EXTT9=
EXTT10=
EXTT11=
EXTT12=
EXTT13=
EXTT14=
EXTT15=
EXTT16=
EXTT17=
EXTT18=
PLAYORDER=
